<svg xmlns="http://www.w3.org/2000/svg" viewBox="0 0 1519.7 1519.7"><defs><style>.a,.b,.c,.e{stroke:#000;stroke-miterlimit:10;}.a{stroke-width:5px;}.b,.f{fill:none;}.b{stroke-width:3.03px;}.c,.d,.e{fill:#fff;}.c{stroke-width:2.26px;}.e{stroke-width:1.52px;}</style></defs><title>competence_user</title><polygon class="a" points="965.1 762.4 565.3 762.4 565.3 1432 765.2 1287.8 965.1 1432 965.1 762.4"/><path d="M1198.2,509.1c0,28.1-36.4,52.3-41.7,78.9s18.9,63.6,8.4,88.9-53.5,34-68.8,56.8-6.8,65.9-26.3,85.3-62.3,10.9-85.3,26.3-31.2,58.2-56.9,68.9-61.4-13.9-88.8-8.5-50.8,41.7-79,41.7-52.3-36.4-78.9-41.7-63.7,18.9-88.9,8.5-34-53.6-56.8-68.9-65.9-6.8-85.3-26.3-10.9-62.3-26.3-85.3-58.2-31.2-68.9-56.8,13.9-61.5,8.5-88.9-41.7-50.8-41.7-78.9,36.4-52.4,41.7-79-18.9-63.6-8.5-88.8,53.6-34.1,68.9-56.9,6.8-65.8,26.3-85.3,62.3-10.9,85.3-26.3S566.4,114.6,592,104s61.5,13.8,88.9,8.4,50.8-41.7,78.9-41.7,52.4,36.4,79,41.7,63.6-18.9,88.8-8.4,34.1,53.5,56.9,68.8,65.8,6.8,85.3,26.3,10.9,62.3,26.3,85.3,58.2,31.2,68.8,56.9-13.8,61.4-8.4,88.8S1198.2,480.9,1198.2,509.1Z"/><path class="b" d="M1198.2,509.1c0,28.1-36.4,52.3-41.7,78.9s18.9,63.6,8.4,88.9-53.5,34-68.8,56.8-6.8,65.9-26.3,85.3-62.3,10.9-85.3,26.3-31.2,58.2-56.9,68.9-61.4-13.9-88.8-8.5-50.8,41.7-79,41.7-52.3-36.4-78.9-41.7-63.7,18.9-88.9,8.5-34-53.6-56.8-68.9-65.9-6.8-85.3-26.3-10.9-62.3-26.3-85.3-58.2-31.2-68.9-56.8,13.9-61.5,8.5-88.9-41.7-50.8-41.7-78.9,36.4-52.4,41.7-79-18.9-63.6-8.5-88.8,53.6-34.1,68.9-56.9,6.8-65.8,26.3-85.3,62.3-10.9,85.3-26.3S566.4,114.6,592,104s61.5,13.8,88.9,8.4,50.8-41.7,78.9-41.7,52.4,36.4,79,41.7,63.6-18.9,88.8-8.4,34.1,53.5,56.9,68.8,65.8,6.8,85.3,26.3,10.9,62.3,26.3,85.3,58.2,31.2,68.8,56.9-13.8,61.4-8.4,88.8S1198.2,480.9,1198.2,509.1Z"/><circle class="c" cx="759.8" cy="509.1" r="314.1"/><polygon points="920.9 731.2 759.7 613.9 598.4 730.9 660.1 541.4 498.9 424.1 698.3 424.2 760 234.7 821.5 424.3 1020.9 424.5 859.5 541.5 920.9 731.2"/><polygon class="d" points="813 579 759.8 540.3 706.6 578.9 726.9 516.3 673.7 477.6 739.5 477.7 759.9 415.1 780.2 477.7 846 477.8 792.7 516.4 813 579"/><polygon class="e" points="954.2 1272.8 765.2 1157.6 576.2 1272.8 576.2 1168.5 765.2 1056.3 954.2 1168.5 954.2 1272.8"/><rect class="f" width="1519.7" height="1519.66"/></svg>