<svg xmlns="http://www.w3.org/2000/svg" viewBox="0 0 708.7 708.7"><defs><style>.a,.b{fill:none;}.a{stroke:#fff;stroke-width:12px;}</style></defs><title>tablet_user</title><path d="M491.6,462.7a11,11,0,0,1,8.8,4V144.4c0-35.5-26.9-64.5-59.8-64.5H114.2c-32.8,0-59.7,29-59.7,64.5v434c0,35.5,26.9,64.5,59.7,64.5H440.6c32.9,0,59.8-29,59.8-64.5V492.8a11.9,11.9,0,0,1-13,1.2,11.5,11.5,0,0,1-5.7,1.4,12.3,12.3,0,0,1-4.4-.8,11.1,11.1,0,0,1-7,2.3,10.8,10.8,0,0,1-3.2-.4v63.4c0,23.1-17.6,42-39,42H125.8c-21.4,0-38.9-18.9-38.9-42v-396c0-23.1,17.5-42,38.9-42H428.1c21.4,0,39,18.9,39,42V427.5c10,.7,13.1,12.5,9.3,20.1a9.9,9.9,0,0,1,2.4-.3c8.8,0,12.7,8.2,11.8,15.4Z"/><path d="M541.2,300.3a87.3,87.3,0,0,0-62.8,147.9,12,12,0,0,1,6.6,6.1,87.3,87.3,0,1,0,56.2-154Z"/><path d="M597.8,649.2c29.4.1,53.4.2,62.8.7,32.3,1.4,33.3-31.4,33.3-31.4s.7.6,0-29.9c-2.2-87.3-90.7-92.5-90.7-92.5h-9.7c-22.6,14.2-52.4,12.2-52.4,12.2s-31.4.3-50.2-12.7c-101,2.1-103.7,91.6-103.7,91.6s-2.4-1.5,0,30.3,32.9,32.4,32.9,32.4S525.4,649.1,597.8,649.2Z"/><path class="a" d="M541.2,300.3a87.3,87.3,0,0,0-62.8,147.9,12,12,0,0,1,6.6,6.1,87.3,87.3,0,1,0,56.2-154Z"/><path class="a" d="M597.8,649.2c29.4.1,53.4.2,62.8.7,32.3,1.4,33.3-31.4,33.3-31.4s.7.6,0-29.9c-2.2-87.3-90.7-92.5-90.7-92.5h-9.7c-22.6,14.2-52.4,12.2-52.4,12.2s-31.4.3-50.2-12.7c-101,2.1-103.7,91.6-103.7,91.6s-2.4-1.5,0,30.3,32.9,32.4,32.9,32.4S525.4,649.1,597.8,649.2Z"/><path d="M393,151.2H161.8c-23.2,0-42.3,19.6-42.3,43.6V487.9c0,23.9,19.1,43.5,42.3,43.5H393c23.3,0,42.4-19.6,42.4-43.5V194.8C435.4,170.8,416.3,151.2,393,151.2Zm18.8,324.2c0,15.6-12.5,28.3-27.6,28.3H170c-15.1,0-27.5-12.7-27.5-28.3V208c0-15.6,12.4-28.4,27.5-28.4H384.2c15.1,0,27.6,12.8,27.6,28.4Z"/><circle cx="277.4" cy="566.8" r="28"/><rect class="b" width="708.7" height="708.66"/></svg>